<svg id="e54df55f-14af-4361-b0e7-5cea4dad018b" data-name="expanded" xmlns="http://www.w3.org/2000/svg" viewBox="0 0 125 125"><title>Amnesty Icons</title><path d="M18.5,67.78h88a1,1,0,0,0,1-1v-7.9a1,1,0,0,0-.81-1l-.81-.16L88.15,54.29a26.15,26.15,0,0,0-17.32-20l-8.33-22-8.33,22a26.15,26.15,0,0,0-17.32,20L19.12,57.74l-.81.16a1,1,0,0,0-.81,1v7.9A1,1,0,0,0,18.5,67.78ZM57.24,39.61l1.48-.4L62.5,26.72l3.78,12.49,1.48.4A20.09,20.09,0,0,1,81.66,53L62.88,49.38l-.38-.08-.38.08L43.34,53A20.09,20.09,0,0,1,57.24,39.61ZM19.5,59.7l43-8.36,43,8.36v6.08h-86Z"/><path d="M62.43,53.91a5,5,0,1,0,5,5A5,5,0,0,0,62.43,53.91Zm0,8a3,3,0,1,1,3-3A3,3,0,0,1,62.43,61.91Z"/><path d="M17.5,108.77h90a1,1,0,0,0,0-2h-90a1,1,0,0,0,0,2Z"/><path d="M111.5,110.77h-98a1,1,0,0,0,0,2h98a1,1,0,0,0,0-2Z"/><rect x="26.5" y="69.77" width="6" height="35" rx="1"/><rect x="37.5" y="69.77" width="6" height="35" rx="1"/><rect x="48.5" y="69.77" width="6" height="35" rx="1"/><rect x="59.5" y="69.77" width="6" height="35" rx="1"/><rect x="70.5" y="69.77" width="6" height="35" rx="1"/><rect x="81.5" y="69.77" width="6" height="35" rx="1"/><rect x="92.5" y="69.77" width="6" height="35" rx="1"/></svg>