<svg id="bdb93baf-9049-4368-9946-8c1d2244f9a2" data-name="expanded" xmlns="http://www.w3.org/2000/svg" viewBox="0 0 125 125"><title>Amnesty Icons</title><path d="M54.42,88.05V73.34c.42,0,.84,0,1.25.06.15-.68.32-1.35.53-2-.59,0-1.18-.05-1.78-.06V54.53H72.11c0,.44,0,.87,0,1.3a19.81,19.81,0,0,1,2-.49l0-.8H88.38c0,.81-.08,1.62-.15,2.42a23.48,23.48,0,0,1,5.59,3.56,41.68,41.68,0,0,0,.58-7,41,41,0,1,0-41,41.1h.1a42.22,42.22,0,0,0,7.57-.72A23.56,23.56,0,0,1,57,87.49,10.83,10.83,0,0,1,54.42,88.05Zm34-35.49H74.1a53.8,53.8,0,0,0-3.9-19.44,42,42,0,0,0,8.41-3.7A34.83,34.83,0,0,1,88.37,52.56ZM76.93,28.09a40.66,40.66,0,0,1-7.54,3.18c-.57-1.21-1.16-2.39-1.81-3.5a27.79,27.79,0,0,0-6.9-8.14A34.31,34.31,0,0,1,76.93,28.09ZM54.42,19c4.67.67,9.6,5.49,13.08,12.86a55.06,55.06,0,0,1-13.08,1.8Zm0,16.66a56.12,56.12,0,0,0,13.9-2,52.27,52.27,0,0,1,3.79,18.89H54.42ZM46,19.68a20,20,0,0,0-2.13,1.86,33.81,33.81,0,0,0-6.53,9.8,40.6,40.6,0,0,1-7.54-3.15A34.36,34.36,0,0,1,46,19.68Zm-17.9,9.83a41.73,41.73,0,0,0,8.45,3.68A54.85,54.85,0,0,0,32.7,52.52H18.43A34.71,34.71,0,0,1,28.06,29.51Zm-9.64,25H32.69A58.53,58.53,0,0,0,36.17,74,40.84,40.84,0,0,0,28,77.67,34.89,34.89,0,0,1,18.42,54.51ZM29.88,78.88a39.69,39.69,0,0,1,7.05-3c2.13,4.89,4.93,8.78,8.2,11.25A34.29,34.29,0,0,1,29.88,78.88Zm22.54,9.17C46.87,87.5,42,82.68,38.81,75.29a54.59,54.59,0,0,1,13.61-1.94Zm0-16.7a56.39,56.39,0,0,0-14.37,2.09,56.88,56.88,0,0,1-3.36-18.92H52.42Zm0-18.82H34.7a52.75,52.75,0,0,1,3.74-18.78,56.85,56.85,0,0,0,14,1.88Zm0-18.91a54.81,54.81,0,0,1-13.17-1.74,31.5,31.5,0,0,1,6-8.93c2.37-2.37,4.83-3.74,7.18-4Z"/><path d="M111.85,102.38,97.65,88.17A21.36,21.36,0,0,0,88,59.09h0A21.14,21.14,0,0,0,72,58h0A21.48,21.48,0,0,0,57.14,78.36a21.23,21.23,0,0,0,1.69,8.33h0c.16.38.35.73.52,1.1s.24.51.37.75c.31.58.66,1.14,1,1.69l0,.06a21.38,21.38,0,0,0,27.63,7.12l14.21,14.2a2.55,2.55,0,0,0,3.61,0l5.62-5.62A2.55,2.55,0,0,0,111.85,102.38ZM69.94,91.16a15.76,15.76,0,0,1-1.31-1l-.29-.26c-.33-.3-.64-.6-1-.92l-.24-.26c-.31-.36-.62-.72-.9-1.1l-.14-.18A16,16,0,0,1,65.2,86a14.56,14.56,0,0,1-.7-1.36c-.13-.31-.26-.62-.37-.94L64,83.51c-.11-.33-.22-.66-.31-1h0a15,15,0,0,1-.59-4.15,15.38,15.38,0,0,1,.57-4.1c.08-.29.17-.57.26-.85s.21-.6.33-.9a1.34,1.34,0,0,1,.07-.18,15.53,15.53,0,0,1,6.74-7.48q.44-.24.9-.45l.21-.1c.35-.16.71-.31,1.08-.44a15.21,15.21,0,0,1,13.18,1.23c.46.28.9.57,1.33.89l0,0c.41.31.8.63,1.18,1l.08.07q.55.53,1,1.08l.08.09c.34.4.67.82,1,1.25h0A15.44,15.44,0,0,1,69.94,91.16Zm40.5,13.42-5.62,5.62a.57.57,0,0,1-.79,0L90.2,96.37A21.53,21.53,0,0,0,96.61,90l13.83,13.83A.57.57,0,0,1,110.44,104.58Z"/></svg>