<svg id="b590aa91-93cc-467f-8064-cdd6696922ca" data-name="expanded" xmlns="http://www.w3.org/2000/svg" viewBox="0 0 125 125"><title>Amnesty Icons</title><path d="M111.69,41.94,106,40.83V16.52a2,2,0,0,0-2.88-1.8L65.92,32.9H27.31a1,1,0,0,0-.6.2L12.91,43.28a1,1,0,0,0-.41.8V65.62a1,1,0,0,0,.38.78l13.76,11a1,1,0,0,0,.62.22h3.6l6.23,32.06a1,1,0,0,0,1,.81H61a1,1,0,0,0,1-1.19L57.58,86.48H62.5A2,2,0,0,0,64,85.75a2,2,0,0,0,.42-1.65L63.2,77.61H66L103.15,95A2,2,0,0,0,106,93.19V68.91l5.69-1.1a1,1,0,0,0,.81-1V42.92A1,1,0,0,0,111.69,41.94ZM18.5,63.21V46.61l8.59-6.34V70.08Zm23.69,41.27L37,77.61H49.75L55,104.48Zm20.31-20H57.19l-1.33-6.87h5.3ZM29.09,71.61V38.9h37V71.61ZM100,86.91,68.09,72V38.52L100,22.93ZM110.5,66l-4.5.88v-24l4.5.87Z"/></svg>